<svg width="96" height="95" viewBox="0 0 96 95" fill="none" xmlns="http://www.w3.org/2000/svg">
<g id="Group 13" opacity="0.6">
<g id="Group 12">
<circle id="Oval Copy 7" cx="68.9443" cy="25.4006" r="3.62865" fill="white"/>
<circle id="Oval Copy 12" cx="68.9443" cy="3.62865" r="3.62865" fill="white"/>
<circle id="Oval Copy 17" cx="68.9443" cy="47.1724" r="3.62865" fill="white"/>
<circle id="Oval Copy 22" cx="68.9443" cy="68.9443" r="3.62865" fill="white"/>
<circle id="Oval Copy 27" cx="68.9443" cy="90.7162" r="3.62865" fill="white"/>
</g>
<g id="Group 12 Copy 4">
<circle id="Oval Copy 7_2" cx="90.7162" cy="25.4006" r="3.62865" fill="white"/>
<circle id="Oval Copy 12_2" cx="90.7162" cy="3.62865" r="3.62865" fill="white"/>
<circle id="Oval Copy 17_2" cx="90.7162" cy="47.1724" r="3.62865" fill="white"/>
<circle id="Oval Copy 22_2" cx="90.7162" cy="68.9443" r="3.62865" fill="white"/>
<circle id="Oval Copy 27_2" cx="90.7162" cy="90.7162" r="3.62865" fill="white"/>
</g>
<g id="Group 12 Copy 2">
<circle id="Oval Copy 7_3" cx="25.4005" cy="25.4006" r="3.62865" fill="white"/>
<circle id="Oval Copy 12_3" cx="25.4005" cy="3.62865" r="3.62865" fill="white"/>
<circle id="Oval Copy 17_3" cx="25.4005" cy="47.1724" r="3.62865" fill="white"/>
<circle id="Oval Copy 22_3" cx="25.4005" cy="68.9443" r="3.62865" fill="white"/>
<circle id="Oval Copy 27_3" cx="25.4005" cy="90.7162" r="3.62865" fill="white"/>
</g>
<g id="Group 12 Copy">
<circle id="Oval Copy 7_4" cx="47.1725" cy="25.4006" r="3.62865" fill="white"/>
<circle id="Oval Copy 12_4" cx="47.1725" cy="3.62865" r="3.62865" fill="white"/>
<circle id="Oval Copy 17_4" cx="47.1725" cy="47.1724" r="3.62865" fill="white"/>
<circle id="Oval Copy 22_4" cx="47.1725" cy="68.9443" r="3.62865" fill="white"/>
<circle id="Oval Copy 27_4" cx="47.1725" cy="90.7162" r="3.62865" fill="white"/>
</g>
<g id="Group 12 Copy 3">
<circle id="Oval Copy 7_5" cx="3.62865" cy="25.4006" r="3.62865" fill="white"/>
<circle id="Oval Copy 12_5" cx="3.62865" cy="3.62865" r="3.62865" fill="white"/>
<circle id="Oval Copy 17_5" cx="3.62865" cy="47.1724" r="3.62865" fill="white"/>
<circle id="Oval Copy 22_5" cx="3.62865" cy="68.9443" r="3.62865" fill="white"/>
<circle id="Oval Copy 27_5" cx="3.62865" cy="90.7162" r="3.62865" fill="white"/>
</g>
</g>
</svg>
